<svg width="32" height="32" viewBox="0 0 32 32" xmlns="http://www.w3.org/2000/svg">
  <defs>
    <linearGradient id="faviconGradient" x1="0%" y1="0%" x2="100%" y2="100%">
      <stop offset="0%" stop-color="#3B82F6" />
      <stop offset="100%" stop-color="#8B5CF6" />
    </linearGradient>
  </defs>
  <rect width="32" height="32" rx="6" fill="url(#faviconGradient)" />
  <rect x="5" y="5" width="22" height="17" rx="2" fill="white" opacity="0.9" />
  <rect x="6" y="6" width="5" height="1" rx="0.5" fill="#3B82F6" />
  <rect x="6" y="8" width="8" height="1" rx="0.5" fill="#3B82F6" />
  <rect x="6" y="10" width="6" height="1" rx="0.5" fill="#3B82F6" />
  <rect x="6" y="12" width="10" height="1" rx="0.5" fill="#3B82F6" />
  <rect x="6" y="14" width="7" height="1" rx="0.5" fill="#3B82F6" />
  <rect x="6" y="16" width="6" height="1" rx="0.5" fill="#3B82F6" />
  <rect x="6" y="18" width="9" height="1" rx="0.5" fill="#3B82F6" />
  <rect x="6" y="20" width="8" height="1" rx="0.5" fill="#3B82F6" />
  <path d="M8 23 L13 26 L18 23 L23 26" stroke="white" stroke-width="1.2" fill="none" stroke-linecap="round" />
  <circle cx="10" cy="25" r="0.8" fill="white" />
  <circle cx="15" cy="25" r="0.8" fill="white" />
  <circle cx="20" cy="25" r="0.8" fill="white" />
</svg>